<svg width="354" height="354" viewBox="0 0 354 354" fill="none" xmlns="http://www.w3.org/2000/svg">
<rect y="176.777" width="250" height="250" rx="125" transform="rotate(-45 0 176.777)" fill="#1E1D23"/>
<line x1="177.5" y1="52" x2="177.5" y2="302" stroke="white" stroke-opacity="0.3"/>
<path d="M231.5 177C231.5 211.465 225.352 242.644 215.433 265.187C210.473 276.459 204.58 285.55 198.062 291.816C191.546 298.08 184.429 301.5 177 301.5C169.571 301.5 162.454 298.08 155.938 291.816C149.42 285.55 143.527 276.459 138.567 265.187C128.648 242.644 122.5 211.465 122.5 177C122.5 142.535 128.648 111.356 138.567 88.813C143.527 77.5406 149.42 68.4496 155.938 62.1836C162.454 55.9199 169.571 52.5 177 52.5C184.429 52.5 191.546 55.9199 198.062 62.1836C204.58 68.4496 210.473 77.5406 215.433 88.813C225.352 111.356 231.5 142.535 231.5 177Z" stroke="white" stroke-opacity="0.3"/>
<path d="M277.5 177C277.5 245.864 232.41 301.5 177 301.5C121.59 301.5 76.5 245.864 76.5 177C76.5 108.136 121.59 52.5 177 52.5C232.41 52.5 277.5 108.136 277.5 177Z" stroke="white" stroke-opacity="0.3"/>
<path d="M185.582 270.837L184.158 149.986L219.849 149.566C230.528 149.44 240.018 151.708 248.319 156.369C256.676 161.03 263.174 167.705 267.815 176.395C272.455 185.084 274.842 195.073 274.975 206.361L275.046 212.42C275.181 223.875 273.004 233.973 268.513 242.714C264.078 251.455 257.655 258.228 249.244 263.031C240.889 267.833 231.261 270.299 220.36 270.427L185.582 270.837ZM205.357 166.671L206.384 253.823L220.079 253.662C231.091 253.532 239.489 250.002 245.274 243.071C251.113 236.085 254.012 226.144 253.971 213.25L253.891 206.527C253.737 193.412 250.769 183.431 244.988 176.581C239.207 169.731 230.894 166.37 220.048 166.498L205.357 166.671Z" fill="#4878C0"/>
<path d="M173.175 198.458C168.677 203.813 162.329 207.972 154.13 210.937C145.931 213.845 136.851 215.285 126.89 215.256C116.431 215.225 107.252 212.929 99.352 208.368C91.5074 203.752 85.4398 197.093 81.149 188.392C76.9135 179.692 74.7577 169.475 74.6816 157.743L74.7058 149.526C74.7414 137.462 76.7919 127.037 80.8576 118.25C84.9787 109.408 90.8644 102.674 98.5148 98.0477C106.221 93.3666 115.22 91.0412 125.513 91.0715C139.846 91.1138 151.042 94.5777 159.101 101.463C167.16 108.294 171.918 118.241 173.373 131.305L149.135 131.234C148.049 124.314 145.601 119.243 141.792 116.022C138.039 112.801 132.841 111.181 126.201 111.162C117.734 111.137 111.278 114.3 106.832 120.65C102.386 127.001 100.117 136.458 100.025 149.019L100.002 156.739C99.9648 169.411 102.344 178.992 107.139 185.481C111.934 191.969 118.981 195.228 128.277 195.255C137.63 195.282 144.304 193.31 148.3 189.337L148.361 168.502L125.7 168.436L125.754 150.091L173.317 150.231L173.175 198.458Z" fill="white"/>
</svg>
