<?xml version="1.0" standalone="no"?>
<!DOCTYPE svg PUBLIC "-//W3C//DTD SVG 20010904//EN"
 "http://www.w3.org/TR/2001/REC-SVG-20010904/DTD/svg10.dtd">
<svg version="1.0" xmlns="http://www.w3.org/2000/svg"
 width="700.000000pt" height="700.000000pt" viewBox="0 0 700.000000 700.000000"
 preserveAspectRatio="xMidYMid meet">
<metadata>
Created by potrace 1.11, written by Peter Selinger 2001-2013
</metadata>
<g transform="translate(0.000000,700.000000) scale(0.100000,-0.100000)"
fill="#000000" stroke="none">
<path d="M3298 5963 c6 -2 18 -2 25 0 6 3 1 5 -13 5 -14 0 -19 -2 -12 -5z"/>
<path d="M3668 5963 c6 -2 18 -2 25 0 6 3 1 5 -13 5 -14 0 -19 -2 -12 -5z"/>
<path d="M3165 5953 c-16 -2 -87 -15 -156 -29 -635 -124 -1203 -508 -1577
-1066 -147 -218 -268 -498 -336 -773 -51 -208 -61 -301 -61 -585 0 -285 12
-390 70 -614 62 -238 199 -545 331 -741 151 -224 365 -453 569 -606 275 -208
562 -345 895 -429 184 -47 223 -47 88 -1 -271 92 -496 232 -717 446 -298 290
-514 653 -645 1085 -74 246 -110 479 -126 810 -5 113 -15 250 -21 305 -15 140
-5 441 20 585 54 308 199 560 403 694 34 23 70 58 91 91 90 134 272 330 417
448 223 181 501 314 764 367 80 16 75 24 -9 13z"/>
<path d="M3826 5941 c706 -147 1296 -749 1548 -1582 123 -407 157 -902 90
-1304 -8 -49 -19 -175 -23 -280 -12 -267 -46 -409 -136 -585 -69 -133 -204
-287 -304 -346 -17 -10 -57 -52 -90 -94 -77 -98 -275 -290 -371 -361 -170
-125 -348 -219 -530 -280 -131 -43 -130 -48 3 -19 545 121 1025 413 1381 840
251 301 422 650 511 1040 74 324 76 728 5 1054 -171 782 -713 1437 -1451 1753
-195 84 -484 161 -659 177 -63 5 -62 5 26 -13z"/>
<path d="M3383 5935 c-217 -59 -416 -260 -580 -590 -87 -173 -88 -156 15 -183
257 -66 459 -242 547 -477 28 -72 64 -222 65 -263 l0 -22 -242 2 -241 3 -14
58 c-30 135 -105 238 -206 286 -34 16 -78 32 -97 36 l-36 6 -31 -133 c-96
-404 -140 -869 -126 -1320 l6 -187 51 -6 c71 -9 234 11 303 36 32 12 75 34 95
48 l38 26 0 201 0 202 -225 7 -225 7 0 179 c0 118 4 180 11 185 6 3 220 3 475
-1 l464 -7 0 -477 0 -477 -52 -50 c-88 -84 -179 -140 -315 -193 -125 -49 -354
-90 -502 -91 l-73 0 6 -47 c15 -107 49 -276 82 -407 171 -681 470 -1132 811
-1221 31 -8 70 -15 85 -15 l28 0 0 2450 0 2450 -32 -1 c-18 0 -57 -7 -85 -14z"/>
<path d="M3520 3500 c0 -2347 1 -2450 18 -2450 36 0 134 31 192 60 102 51 225
164 316 290 47 63 144 228 144 243 0 5 -110 6 -260 2 -143 -4 -260 -6 -261 -4
-1 9 -28 2124 -29 2257 l0 143 450 -3 451 -3 -6 55 c-114 1004 -476 1729 -922
1845 -31 8 -65 15 -75 15 -17 0 -18 -103 -18 -2450z"/>
<path d="M3175 5916 c-245 -52 -482 -159 -690 -313 -111 -82 -330 -299 -413
-410 -34 -45 -62 -84 -62 -86 0 -3 27 6 60 20 147 59 199 67 426 68 l212 0 32
75 c126 298 354 573 543 655 44 20 20 17 -108 -9z"/>
<path d="M3735 5915 c266 -142 478 -456 640 -949 83 -251 158 -611 181 -861
l7 -74 54 -11 c140 -29 297 -102 417 -192 134 -100 268 -289 330 -466 30 -84
66 -253 66 -308 0 -68 10 -29 25 102 21 174 21 509 0 689 -89 768 -466 1441
-1015 1810 -109 73 -319 176 -437 214 -73 24 -280 71 -310 71 -3 0 16 -11 42
-25z"/>
<path d="M2400 4790 c-191 -33 -320 -171 -379 -403 -40 -155 -53 -446 -30
-659 34 -309 159 -498 374 -561 l50 -14 1 346 c1 460 34 781 118 1141 19 80
32 148 29 153 -5 9 -103 7 -163 -3z"/>
<path d="M4206 3702 l-148 -3 6 -137 c3 -75 9 -463 12 -861 l7 -724 81 7 c44
3 102 6 128 6 l47 0 30 98 c72 233 135 547 165 829 21 187 38 610 28 698 l-7
69 -35 7 c-56 11 -154 14 -314 11z"/>
<path d="M4587 3403 c-12 -503 -78 -950 -192 -1309 l-33 -104 40 0 c68 0 191
30 263 65 168 81 279 237 332 467 25 108 24 508 -1 633 -48 241 -156 400 -333
489 -29 14 -56 26 -61 26 -5 0 -12 -120 -15 -267z"/>
<path d="M1531 3365 c-2 -178 47 -477 115 -708 243 -829 844 -1440 1549 -1577
58 -11 109 -20 113 -20 4 0 -17 13 -47 28 -208 110 -389 339 -535 674 -100
231 -192 550 -239 833 l-24 140 -87 12 c-126 16 -219 41 -318 84 -232 100
-400 285 -504 554 l-23 60 0 -80z"/>
<path d="M4816 1743 c-146 -62 -311 -93 -492 -93 l-104 0 -30 -61 c-72 -141
-199 -312 -294 -393 -58 -50 -178 -126 -197 -126 -7 0 -10 -2 -7 -5 3 -3 53 4
113 15 326 63 640 232 904 484 81 78 196 205 190 210 -2 1 -39 -12 -83 -31z"/>
<path d="M3128 1063 c7 -3 16 -2 19 1 4 3 -2 6 -13 5 -11 0 -14 -3 -6 -6z"/>
</g>
</svg>
